<svg width="24" height="25" viewBox="0 0 24 25" fill="none" xmlns="http://www.w3.org/2000/svg">
<path fill-rule="evenodd" clip-rule="evenodd" d="M5.105 19.3943C3.83913 18.1284 3.12797 16.4115 3.12797 14.6213C3.12797 12.8311 3.83913 11.1142 5.105 9.84837L10.7619 4.19151C11.6527 3.30071 12.8608 2.80027 14.1206 2.80027C15.3804 2.80027 16.5886 3.30072 17.4794 4.19151C18.3702 5.08231 18.8706 6.29049 18.8706 7.55027C18.8706 8.81005 18.3702 10.0182 17.4794 10.909L11.7214 16.667C11.2057 17.1827 10.5062 17.4725 9.77686 17.4725C9.04751 17.4725 8.34804 17.1827 7.83231 16.667C7.31659 16.1513 7.02686 15.4518 7.02686 14.7225C7.02686 13.9931 7.31659 13.2936 7.83231 12.7779L13.3881 7.22217C13.5287 7.08152 13.7195 7.0025 13.9184 7.0025C14.1173 7.0025 14.3081 7.08152 14.4487 7.22217C14.5894 7.36282 14.6684 7.55359 14.6684 7.7525C14.6684 7.95142 14.5894 8.14218 14.4487 8.28283L8.89297 13.8386C8.65855 14.073 8.52686 14.3909 8.52686 14.7225C8.52686 15.054 8.65855 15.3719 8.89297 15.6063C9.12739 15.8408 9.44534 15.9725 9.77686 15.9725C10.1084 15.9725 10.4263 15.8408 10.6607 15.6063L16.4187 9.84837C17.0282 9.23887 17.3706 8.41222 17.3706 7.55027C17.3706 6.68832 17.0282 5.86167 16.4187 5.25217C15.8092 4.64268 14.9826 4.30027 14.1206 4.30027C13.2587 4.30027 12.432 4.64268 11.8225 5.25217L6.16566 10.909C5.1811 11.8936 4.62797 13.229 4.62797 14.6213C4.62797 16.0137 5.1811 17.3491 6.16566 18.3336C7.15023 19.3182 8.48559 19.8713 9.87797 19.8713C11.2704 19.8713 12.6057 19.3182 13.5903 18.3336L19.0449 12.879C19.1856 12.7384 19.3763 12.6594 19.5752 12.6594C19.7741 12.6594 19.9649 12.7384 20.1056 12.879C20.2462 13.0197 20.3252 13.2104 20.3252 13.4094C20.3252 13.6083 20.2462 13.799 20.1056 13.9397L14.6509 19.3943C13.3851 20.6602 11.6682 21.3713 9.87797 21.3713C8.08776 21.3713 6.37087 20.6602 5.105 19.3943Z" fill="white"/>
</svg>
