<svg width="20" height="21" viewBox="0 0 20 21" fill="none" xmlns="http://www.w3.org/2000/svg">
<path d="M1.64645 4.14645C1.74021 4.05268 1.86739 4 2 4H18C18.1326 4 18.2598 4.05268 18.3536 4.14645C18.4473 4.24021 18.5 4.36739 18.5 4.5V5.5C18.5 5.63261 18.4473 5.75979 18.3536 5.85355C18.2598 5.94732 18.1326 6 18 6H2C1.86739 6 1.74021 5.94732 1.64645 5.85355C1.55268 5.75978 1.5 5.63261 1.5 5.5V4.5C1.5 4.36739 1.55268 4.24021 1.64645 4.14645Z" fill="white" stroke="white"/>
<path fill-rule="evenodd" clip-rule="evenodd" d="M2 8H18L17.189 15.71C17.1371 16.2015 16.905 16.6564 16.5376 16.987C16.1701 17.3175 15.6933 17.5003 15.199 17.5H4.802C4.30774 17.5003 3.8309 17.3175 3.46343 16.987C3.09596 16.6564 2.8639 16.2015 2.812 15.71L2 8ZM7 11.5C7 11.2348 7.10536 10.9804 7.29289 10.7929C7.48043 10.6054 7.73478 10.5 8 10.5H12C12.2652 10.5 12.5196 10.6054 12.7071 10.7929C12.8946 10.9804 13 11.2348 13 11.5C13 11.7652 12.8946 12.0196 12.7071 12.2071C12.5196 12.3946 12.2652 12.5 12 12.5H8C7.73478 12.5 7.48043 12.3946 7.29289 12.2071C7.10536 12.0196 7 11.7652 7 11.5Z" fill="white"/>
</svg>
