<svg width="31" height="32" viewBox="0 0 31 32" fill="none" xmlns="http://www.w3.org/2000/svg">
<path d="M23.25 10.8333C23.25 8.77789 22.4335 6.80664 20.9801 5.35324C19.5267 3.89983 17.5554 3.08331 15.5 3.08331C13.4446 3.08331 11.4733 3.89983 10.0199 5.35324C8.56652 6.80664 7.75 8.77789 7.75 10.8333C7.75 19.875 3.875 22.4583 3.875 22.4583H27.125C27.125 22.4583 23.25 19.875 23.25 10.8333Z" stroke="white" stroke-width="2" stroke-linecap="round" stroke-linejoin="round"/>
<path d="M17.7345 27.625C17.5075 28.0165 17.1815 28.3414 16.7893 28.5673C16.3972 28.7932 15.9525 28.9121 15.5 28.9121C15.0474 28.9121 14.6028 28.7932 14.2106 28.5673C13.8184 28.3414 13.4925 28.0165 13.2654 27.625" stroke="white" stroke-width="2" stroke-linecap="round" stroke-linejoin="round"/>
</svg>
